# xmcd
#
# Track frame offsets:
#  150
#  1502
#  4798
#  7454
#  12966
#  29771
#  47597
#  64445
#  81781
#  100290
#  117839
#  136153
#  152384
#
# Disc length: 2276 seconds
#
# Revision: 0
# Processed by: cddbd v1.5.1PL2 Copyright (c) Steve Scherf et al.
# Submitted via: Collectorz.com_Music_Collector 6.9
#
DISCID=9908e20d
DTITLE=Shania Twain - Come on over
DYEAR=1900
DGENRE=Country
TTITLE0=Love gets me every time
TTITLE1=Don't be stupid
TTITLE2=You're still the one
TTITLE3=Honey I'm home
TTITLE4=From this moment on
TTITLE5=That don't impress me much
TTITLE6=Man! fell like a woman
TTITLE7=You've got a way
TTITLE8=Come on over
TTITLE9=Data track
TTITLE10=Data track
TTITLE11=Data track
TTITLE12=Data track
EXTD=
EXTT0=
EXTT1=
EXTT2=
EXTT3=
EXTT4=
EXTT5=
EXTT6=
EXTT7=
EXTT8=
EXTT9=
EXTT10=
EXTT11=
EXTT12=
PLAYORDER=
